<?xml version="1.0" encoding="UTF-8"?>
<svg xmlns="http://www.w3.org/2000/svg" xmlns:xlink="http://www.w3.org/1999/xlink" width="1024pt" height="1024pt" viewBox="0 0 1024 1024">
<path fill-rule="nonzero" fill="rgb(100%, 100%, 100%)" fill-opacity="1" d="M 453.820312 524.925781 C 473.011719 525.953125 485.972656 508.84375 495.019531 491.707031 C 498.875 484.402344 503.632812 476.613281 511.578125 476.566406 C 519.777344 476.519531 524.601562 484.675781 528.640625 492.199219 C 539.203125 511.882812 556.4375 529.589844 577.355469 524.636719 C 590.625 521.496094 598.78125 509.296875 607.214844 498.492188 C 612.035156 492.308594 617.890625 486.226562 625.597656 486.347656 C 632.910156 486.464844 638.824219 492.113281 640.140625 499.429688 C 641.179688 505.203125 639.15625 510.925781 636.53125 516.171875 C 625.089844 539.050781 603.269531 554.925781 578.039062 557.601562 C 552.316406 560.328125 527.105469 548.929688 511.957031 527.707031 C 498.574219 546.707031 476.890625 558.042969 453.757812 558.011719 C 425.308594 557.972656 400.308594 541.070312 387.675781 516.691406 C 384.84375 511.226562 382.738281 505.265625 383.914062 499.191406 C 385.546875 490.730469 393.195312 484.722656 401.632812 485.808594 C 409.476562 486.820312 414.238281 493.011719 418.894531 499.214844 C 428.085938 511.445312 438.917969 524.132812 453.820312 524.925781 Z M 453.820312 524.925781 "/>
<path fill-rule="nonzero" fill="rgb(100%, 100%, 100%)" fill-opacity="1" d="M 317.597656 278.3125 C 314.019531 278.710938 310.632812 280.277344 307.984375 282.8125 C 306.589844 284.144531 305.441406 285.710938 304.59375 287.441406 C 303.738281 289.179688 303.195312 291.054688 302.996094 292.980469 C 302.492188 297.839844 304.109375 302.6875 307.492188 306.214844 C 308.566406 307.300781 310.070312 308.3125 312.117188 309.453125 C 314.164062 310.59375 316.75 311.863281 319.980469 313.453125 L 420.933594 363.164062 L 316.621094 405.542969 C 313.285156 406.898438 310.613281 407.976562 308.492188 408.96875 C 306.371094 409.957031 304.792969 410.863281 303.648438 411.867188 C 300.019531 415.144531 298.042969 419.859375 298.203125 424.742188 C 298.265625 426.679688 298.679688 428.589844 299.410156 430.382812 C 300.136719 432.167969 301.175781 433.8125 302.472656 435.238281 C 305.765625 438.847656 310.464844 440.863281 315.351562 440.683594 C 316.871094 440.605469 318.636719 440.15625 320.851562 439.390625 C 323.066406 438.625 325.738281 437.539062 329.074219 436.183594 L 459.433594 383.246094 C 460.644531 382.742188 461.855469 382.242188 463.070312 381.746094 C 464.699219 381.078125 466.335938 380.417969 467.929688 379.664062 C 469.371094 378.980469 470.777344 378.214844 472.011719 377.203125 C 473.492188 375.988281 474.675781 374.457031 475.601562 372.78125 C 476.578125 371.015625 477.269531 369.101562 477.589844 367.109375 C 477.773438 365.988281 477.835938 364.851562 477.785156 363.71875 C 477.699219 361.753906 477.273438 359.816406 476.484375 358.015625 C 475.816406 356.484375 474.894531 355.082031 473.777344 353.84375 C 472.746094 352.699219 471.566406 351.710938 470.304688 350.835938 C 468.703125 349.726562 467.015625 348.816406 465.234375 347.945312 C 463.820312 347.253906 462.351562 346.59375 460.800781 345.953125 L 334.582031 283.789062 C 331.351562 282.199219 328.765625 280.921875 326.613281 280 C 324.457031 279.074219 322.730469 278.5 321.21875 278.3125 C 320.003906 278.179688 318.800781 278.179688 317.597656 278.3125 Z M 317.597656 278.3125 "/>
<path fill-rule="nonzero" fill="rgb(100%, 100%, 100%)" fill-opacity="1" d="M 706.402344 278.3125 C 709.980469 278.710938 713.367188 280.277344 716.015625 282.8125 C 717.410156 284.144531 718.558594 285.710938 719.40625 287.441406 C 720.261719 289.179688 720.804688 291.054688 721.003906 292.980469 C 721.507812 297.839844 719.890625 302.6875 716.507812 306.214844 C 715.433594 307.300781 713.929688 308.3125 711.882812 309.453125 C 709.835938 310.59375 707.25 311.863281 704.019531 313.453125 L 603.066406 363.164062 L 707.378906 405.542969 C 710.714844 406.898438 713.386719 407.976562 715.507812 408.96875 C 717.628906 409.957031 719.207031 410.863281 720.351562 411.867188 C 723.980469 415.144531 725.957031 419.859375 725.796875 424.742188 C 725.734375 426.679688 725.320312 428.589844 724.589844 430.382812 C 723.863281 432.167969 722.824219 433.8125 721.527344 435.238281 C 718.234375 438.847656 713.535156 440.863281 708.648438 440.683594 C 707.128906 440.605469 705.363281 440.15625 703.148438 439.390625 C 700.933594 438.625 698.261719 437.539062 694.925781 436.183594 L 564.566406 383.246094 C 563.355469 382.742188 562.144531 382.242188 560.929688 381.746094 C 559.300781 381.078125 557.664062 380.417969 556.070312 379.664062 C 554.628906 378.980469 553.222656 378.214844 551.988281 377.203125 C 550.507812 375.988281 549.324219 374.457031 548.398438 372.78125 C 547.421875 371.015625 546.730469 369.101562 546.410156 367.109375 C 546.226562 365.988281 546.164062 364.851562 546.214844 363.71875 C 546.300781 361.753906 546.726562 359.816406 547.515625 358.015625 C 548.183594 356.484375 549.105469 355.082031 550.222656 353.84375 C 551.253906 352.699219 552.433594 351.710938 553.695312 350.835938 C 555.296875 349.726562 556.984375 348.816406 558.765625 347.945312 C 560.179688 347.253906 561.648438 346.59375 563.199219 345.953125 L 689.417969 283.789062 C 692.648438 282.199219 695.234375 280.921875 697.386719 280 C 699.542969 279.074219 701.269531 278.5 702.78125 278.3125 C 703.996094 278.179688 705.199219 278.179688 706.402344 278.3125 Z M 706.402344 278.3125 "/>
</svg>
